<svg viewBox="0 0 1024 1024" xmlns="http://www.w3.org/2000/svg">
  <!-- Outer ring: p2 evenodd p3 = white ring only, black area transparent -->
  <path fill="white" fill-rule="evenodd" d="M198.166199,556.908569 
	C194.403198,537.991211 189.761978,519.593628 187.315857,500.908722 
	C185.230881,484.982574 184.933594,468.716888 185.129272,452.617035 
	C185.766800,400.166687 198.861755,350.676575 223.794647,304.667664 
	C270.718811,218.078003 342.396149,162.768265 437.832581,138.617935 
	C472.774048,129.775970 508.376953,127.438599 544.322205,130.814667 
	C623.615967,138.262146 692.001953,169.700562 748.649841,225.494034 
	C796.098145,272.226654 825.858032,328.923767 839.009888,394.266876 
	C846.561096,431.784210 847.958801,469.553497 842.840881,507.455292 
	C834.451660,569.583313 810.452393,625.141907 770.364014,673.315796 
	C720.322205,733.450745 656.676514,771.670471 580.064026,787.619446 
	C548.798340,794.128235 517.072021,795.866394 485.202179,792.108215 
	C364.271790,777.848145 275.560883,716.394653 218.800766,609.053772 
	C210.174805,592.740967 205.007233,574.599487 198.166199,556.908569 
M219.370117,436.995605 
	C217.751419,463.173584 218.597931,489.277924 223.223114,515.098572 
	C231.909119,563.589111 251.220352,607.520508 282.198639,645.899109 
	C335.080841,711.414307 403.601715,748.698730 487.302521,758.262024 
	C517.202698,761.678284 546.890381,760.229309 576.076538,753.643738 
	C653.902466,736.082947 716.043701,694.467224 760.920349,628.473999 
	C806.208557,561.875427 821.025452,488.153900 807.685364,408.918549 
	C799.484985,360.210938 780.337219,315.991730 749.420959,277.322968 
	C697.171692,211.971954 629.707886,173.525146 546.242188,163.863708 
	C506.195648,159.228165 466.867126,162.895294 428.575928,175.192841 
	C349.983734,200.433411 291.175079,249.736008 252.279266,322.547638 
	C233.331390,358.017395 222.714813,396.005371 219.370117,436.995605 
z
M219.436005,436.535156 
	C222.714813,396.005371 233.331390,358.017395 252.279266,322.547638 
	C291.175079,249.736008 349.983734,200.433411 428.575928,175.192841 
	C466.867126,162.895294 506.195648,159.228165 546.242188,163.863708 
	C629.707886,173.525146 697.171692,211.971954 749.420959,277.322968 
	C780.337219,315.991730 799.484985,360.210938 807.685364,408.918549 
	C821.025452,488.153900 806.208557,561.875427 760.920349,628.473999 
	C716.043701,694.467224 653.902466,736.082947 576.076538,753.643738 
	C546.890381,760.229309 517.202698,761.678284 487.302521,758.262024 
	C403.601715,748.698730 335.080841,711.414307 282.198639,645.899109 
	C251.220352,607.520508 231.909119,563.589111 223.223114,515.098572 
	C218.597931,489.277924 217.751419,463.173584 219.436005,436.535156 
M507.010162,430.519165 
	C527.895630,410.700592 548.930115,391.034943 569.551086,370.944885 
	C574.116821,366.496704 578.592773,364.598419 584.875183,364.881439 
	C595.088013,365.341614 605.336731,365.005554 615.570312,365.005554 
	C615.712585,365.374573 615.854797,365.743561 615.997070,366.112579 
	C595.300964,385.440735 574.604858,404.768921 553.922913,424.083862 
	C562.785339,433.573578 571.385315,442.782288 579.463440,451.432159 
	C624.746765,411.680023 669.688354,372.227844 714.842712,332.588959 
	C705.780396,327.106476 696.595093,321.494598 687.357666,315.970032 
	C631.004028,282.267273 574.622559,248.610886 518.325439,214.813980 
	C515.596313,213.175522 513.740295,213.282898 511.175507,214.830872 
	C448.418793,252.707748 385.659790,290.581238 322.779541,328.252289 
	C315.852112,332.402435 310.764679,337.062500 309.888123,345.594696 
	C309.486908,349.499664 307.874634,353.304932 306.626251,357.094360 
	C292.580811,399.728790 286.229950,443.285980 289.866089,488.233032 
	C292.077606,515.569763 297.561401,542.080505 307.633881,567.571838 
	C311.737061,577.956055 316.539642,588.063904 321.485748,599.351257 
	C332.464600,589.829468 342.344360,581.260925 352.003937,572.883362 
	C320.842407,504.154968 321.197113,435.061981 345.349457,365.107117 
	C402.274109,365.107117 459.135437,365.107117 517.128174,365.107117 
	C480.750763,399.882111 445.122437,433.941010 407.726868,469.689270 
	C426.257477,487.362122 444.414429,504.503143 462.307587,521.915222 
	C465.306091,524.833130 468.129120,526.070740 472.272583,526.045105 
	C510.100494,525.811523 547.929871,525.812500 585.758240,525.636414 
	C589.621521,525.618408 592.483459,526.515137 595.371277,529.470276 
	C604.203796,538.508606 613.494995,547.099304 622.624207,555.846924 
	C632.448730,565.260803 642.291992,574.655151 652.270508,584.195068 
	C646.578247,588.367371 641.206665,592.481995 635.658447,596.342957 
	C596.905640,623.310547 558.103699,650.207397 519.369202,677.201172 
	C516.964417,678.876953 515.291748,678.927490 512.748779,677.264587 
	C484.089752,658.524292 455.320160,639.953247 426.605255,621.298157 
	C419.136719,616.446106 411.755157,611.460205 403.891876,606.242615 
	C422.798859,589.727661 441.145477,573.702209 459.795898,557.411377 
	C450.332092,548.523926 441.279938,540.023071 431.952789,531.263916 
	C401.504303,557.769653 370.172607,585.044189 338.532776,612.587036 
	C343.557190,616.184509 348.268372,619.870239 353.276215,623.095276 
	C406.247375,657.208130 459.297333,691.198914 512.198303,725.419983 
	C515.623535,727.635681 517.760620,727.362610 520.925476,725.385193 
	C580.159058,688.375977 638.011963,649.328674 695.303101,609.377319 
	C709.238342,599.659729 717.997131,588.389771 721.830750,572.473022 
	C722.063049,571.508728 722.400208,570.567017 722.728394,569.628784 
	C732.080994,542.894409 738.433228,515.477356 740.901917,487.246582 
	C743.366089,459.066437 741.743408,431.025177 735.793884,403.396362 
	C732.357910,387.440277 727.553406,371.778870 723.364868,355.984833 
	C722.694214,355.857727 722.023499,355.730621 721.352844,355.603485 
	C712.538513,363.114288 703.813293,370.733856 694.858704,378.073517 
	C691.941711,380.464417 691.541260,382.734497 692.545471,386.244720 
	C698.506409,407.079956 702.032471,428.389557 702.898560,450.011902 
	C704.318115,485.451080 698.640320,519.843445 686.029175,553.039185 
	C685.069946,555.563965 683.905334,558.010742 682.700500,560.808899 
	C681.492737,559.678589 680.736633,559.033936 680.051758,558.320984 
	C657.566223,534.916382 635.135010,511.458954 612.511902,488.188141 
	C610.816772,486.444458 607.760986,485.138519 605.330566,485.126862 
	C566.333313,484.939453 527.334900,485.007690 488.336853,484.957001 
	C486.585571,484.954712 484.259216,484.984253 483.180939,483.963531 
	C477.672699,478.749237 472.486755,473.194519 467.017700,467.584106 
	C480.162567,455.419220 493.339325,443.224854 507.010162,430.519165 
z"/>
  <!-- Inner symbol: p4 evenodd p5 = white symbol body, black top transparent -->
  <path fill="white" fill-rule="evenodd" d="M506.763123,430.774841 
	C493.339325,443.224854 480.162567,455.419220 467.017700,467.584106 
	C472.486755,473.194519 477.672699,478.749237 483.180939,483.963531 
	C484.259216,484.984253 486.585571,484.954712 488.336853,484.957001 
	C527.334900,485.007690 566.333313,484.939453 605.330566,485.126862 
	C607.760986,485.138519 610.816772,486.444458 612.511902,488.188141 
	C635.135010,511.458954 657.566223,534.916382 680.051758,558.320984 
	C680.736633,559.033936 681.492737,559.678589 682.700500,560.808899 
	C683.905334,558.010742 685.069946,555.563965 686.029175,553.039185 
	C698.640320,519.843445 704.318115,485.451080 702.898560,450.011902 
	C702.032471,428.389557 698.506409,407.079956 692.545471,386.244720 
	C691.541260,382.734497 691.941711,380.464417 694.858704,378.073517 
	C703.813293,370.733856 712.538513,363.114288 721.352844,355.603485 
	C722.023499,355.730621 722.694214,355.857727 723.364868,355.984833 
	C727.553406,371.778870 732.357910,387.440277 735.793884,403.396362 
	C741.743408,431.025177 743.366089,459.066437 740.901917,487.246582 
	C738.433228,515.477356 732.080994,542.894409 722.728394,569.628784 
	C722.400208,570.567017 722.063049,571.508728 721.830750,572.473022 
	C717.997131,588.389771 709.238342,599.659729 695.303101,609.377319 
	C638.011963,649.328674 580.159058,688.375977 520.925476,725.385193 
	C517.760620,727.362610 515.623535,727.635681 512.198303,725.419983 
	C459.297333,691.198914 406.247375,657.208130 353.276215,623.095276 
	C348.268372,619.870239 343.557190,616.184509 338.532776,612.587036 
	C370.172607,585.044189 401.504303,557.769653 431.952789,531.263916 
	C441.279938,540.023071 450.332092,548.523926 459.795898,557.411377 
	C441.145477,573.702209 422.798859,589.727661 403.891876,606.242615 
	C411.755157,611.460205 419.136719,616.446106 426.605255,621.298157 
	C455.320160,639.953247 484.089752,658.524292 512.748779,677.264587 
	C515.291748,678.927490 516.964417,678.876953 519.369202,677.201172 
	C558.103699,650.207397 596.905640,623.310547 635.658447,596.342957 
	C641.206665,592.481995 646.578247,588.367371 652.270508,584.195068 
	C642.291992,574.655151 632.448730,565.260803 622.624207,555.846924 
	C613.494995,547.099304 604.203796,538.508606 595.371277,529.470276 
	C592.483459,526.515137 589.621521,525.618408 585.758240,525.636414 
	C547.929871,525.812500 510.100494,525.811523 472.272583,526.045105 
	C468.129120,526.070740 465.306091,524.833130 462.307587,521.915222 
	C444.414429,504.503143 426.257477,487.362122 407.726868,469.689270 
	C445.122437,433.941010 480.750763,399.882111 517.128174,365.107117 
	C459.135437,365.107117 402.274109,365.107117 345.349457,365.107117 
	C321.197113,435.061981 320.842407,504.154968 352.003937,572.883362 
	C342.344360,581.260925 332.464600,589.829468 321.485748,599.351257 
	C316.539642,588.063904 311.737061,577.956055 307.633881,567.571838 
	C297.561401,542.080505 292.077606,515.569763 289.866089,488.233032 
	C286.229950,443.285980 292.580811,399.728790 306.626251,357.094360 
	C307.874634,353.304932 309.486908,349.499664 309.888123,345.594696 
	C310.764679,337.062500 315.852112,332.402435 322.779541,328.252289 
	C385.659790,290.581238 448.418793,252.707748 511.175507,214.830872 
	C513.740295,213.282898 515.596313,213.175522 518.325439,214.813980 
	C574.622559,248.610886 631.004028,282.267273 687.357666,315.970032 
	C696.595093,321.494598 705.780396,327.106476 714.842712,332.588959 
	C669.688354,372.227844 624.746765,411.680023 579.463440,451.432159 
	C571.385315,442.782288 562.785339,433.573578 553.922913,424.083862 
	C574.604858,404.768921 595.300964,385.440735 615.997070,366.112579 
	C615.854797,365.743561 615.712585,365.374573 615.570312,365.005554 
	C605.336731,365.005554 595.088013,365.341614 584.875183,364.881439 
	C578.592773,364.598419 574.116821,366.496704 569.551086,370.944885 
	C548.930115,391.034943 527.895630,410.700592 506.763123,430.774841 
M469.337891,286.828491 
	C447.645416,299.834473 425.952942,312.840424 404.260468,325.846405 
	C404.386536,326.141998 404.512573,326.437622 404.638611,326.733215 
	C478.251251,326.733215 551.863892,326.733215 626.101135,326.733215 
	C589.608276,304.616852 553.702881,282.805847 517.671753,261.204590 
	C516.224487,260.336945 513.205505,260.799896 511.562500,261.752808 
	C497.613647,269.842743 483.814301,278.190430 469.337891,286.828491 
z
M469.653992,286.644653 
	C483.814301,278.190430 497.613647,269.842743 511.562500,261.752808 
	C513.205505,260.799896 516.224487,260.336945 517.671753,261.204590 
	C553.702881,282.805847 589.608276,304.616852 626.101135,326.733215 
	C551.863892,326.733215 478.251251,326.733215 404.638611,326.733215 
	C404.512573,326.437622 404.386536,326.141998 404.260468,325.846405 
	C425.952942,312.840424 447.645416,299.834473 469.653992,286.644653 
z"/>
</svg>